<?xml version="1.0" encoding="utf-8"?>
<!-- Generator: Adobe Illustrator 26.3.1, SVG Export Plug-In . SVG Version: 6.00 Build 0)  -->
<svg version="1.1" id="Layer_1" xmlns="http://www.w3.org/2000/svg" xmlns:xlink="http://www.w3.org/1999/xlink" x="0px" y="0px"
	 viewBox="0 0 210.5 170.3" style="enable-background:new 0 0 210.5 170.3;" xml:space="preserve">
<style type="text/css">
	.st0{fill:#FFFFFF;}
</style>
<g>
	<path d="M172.8,85.2c0-37.3-30.2-67.5-67.5-67.5S37.8,47.9,37.8,85.2c0,33.7,24.7,61.6,57,66.7v-47.2H77.6V85.2h17.1V70.3
		c0-16.9,10.1-26.3,25.5-26.3c7.4,0,15.1,1.3,15.1,1.3V62h-8.5c-8.4,0-11,5.2-11,10.5v12.7h18.7l-3,19.5h-15.7v47.2
		C148.1,146.8,172.8,118.9,172.8,85.2z"/>
	<path class="st0" d="M131.5,104.7l3-19.5h-18.7V72.5c0-5.3,2.6-10.5,11-10.5h8.5V45.4c0,0-7.7-1.3-15.1-1.3
		c-15.4,0-25.5,9.3-25.5,26.3v14.9H77.6v19.5h17.1v47.2c3.4,0.5,7,0.8,10.5,0.8c3.6,0,7.1-0.3,10.5-0.8v-47.2H131.5z"/>
</g>
</svg>
