<?xml version="1.0" encoding="utf-8"?>
<!-- Generator: Adobe Illustrator 26.3.1, SVG Export Plug-In . SVG Version: 6.00 Build 0)  -->
<svg version="1.1" id="Layer_1" xmlns="http://www.w3.org/2000/svg" xmlns:xlink="http://www.w3.org/1999/xlink" x="0px" y="0px"
	 viewBox="0 0 376 304.2" style="enable-background:new 0 0 376 304.2;" xml:space="preserve">
<style type="text/css">
	.st0{fill:#1A1A1A;}
</style>
<g>
	<path class="st0" d="M255.1,222h0.1l5.1,14.7h-10.4L255.1,222z M235.5,252.2h8.9l3.1-8.9h15l3,8.9h9.2l-15-40.1h-9L235.5,252.2z
		 M239.3,212.1h-9.1l-9,28.2H221l-8.9-28.2H203l13,40.1h9.9L239.3,212.1z M171.1,232.3c0-7,3-13.8,10.9-13.8
		c7.9,0,10.9,6.7,10.9,13.8c0,6.7-3,13.4-10.9,13.4C174.1,245.8,171.1,239,171.1,232.3z M162.3,232.3c0,11.6,7.3,20.8,19.7,20.8
		c12.4,0,19.7-9.3,19.7-20.8c0-11.9-7.3-21.2-19.7-21.2C169.6,211.2,162.3,220.4,162.3,232.3z M139,252.2h8.8v-32.7h12v-7.4H127v7.4
		h12V252.2z M94.1,252.2h30.4v-7.4h-21.6V235h19.4v-6.9h-19.4v-8.6h21.2v-7.4h-30V252.2z M69,252.2h8.8v-32.7h12v-7.4H57v7.4h12
		V252.2z M209,201.2h30.4v-7.4h-21.6V184h19.4v-6.9h-19.4v-8.6H239v-7.4h-30V201.2z M203.1,174.6c-1.1-9.3-8.5-14.4-17.3-14.4
		c-12.4,0-19.7,9.3-19.7,21.2c0,11.6,7.3,20.8,19.7,20.8c9.8,0,16.7-6.4,17.6-16.4h-8.5c-0.7,5.3-3.7,9-9.1,9
		c-7.9,0-10.9-6.7-10.9-13.4c0-7,3-13.8,10.9-13.8c4.4,0,8.2,3,8.8,7H203.1z M145,171h0.1l5.1,14.7h-10.4L145,171z M125.4,201.2h8.9
		l3.1-8.9h15l3,8.9h9.2l-15-40.1h-9L125.4,201.2z M105.6,168h6.9c4.1,0,7.8,0.9,7.8,6c0,5.1-3.7,6-7.8,6h-6.9V168z M96.8,201.2h8.8
		v-14.4h9.3c10,0,13.9-6.3,13.9-12.9c0-6.5-3.9-12.9-13.9-12.9H96.8V201.2z M58.2,187.9c-0.1,9.9,8.2,14.3,17.1,14.3
		c10.9,0,16.7-5.5,16.7-12.9c0-9.1-9-11-11.9-11.7c-10.1-2.6-12-3-12-6.1c0-3.4,3.3-4.5,6.1-4.5c4.2,0,7.6,1.2,7.9,6.1h8.5
		c0-9.3-7.7-12.9-16.1-12.9c-7.2,0-15,3.9-15,12.1c0,7.5,6,9.8,12,11.4c5.9,1.6,11.9,2.3,11.9,6.6c0,4.1-4.7,5-7.8,5
		c-4.7,0-8.9-2.1-8.9-7.4H58.2z M322.2,150.3h28.4v-7.4H331v-32.7h-8.8V150.3z M299.4,120h0.1l5.1,14.7h-10.4L299.4,120z
		 M279.8,150.3h8.9l3.1-8.9h15l3,8.9h9.2l-15-40.1h-9L279.8,150.3z M252.7,117h9.7c3.9,0,6.1,1.7,6.1,5.6c0,4-2.1,5.7-6.1,5.7h-9.7
		V117z M243.9,150.3h8.8v-15.7h8.8c4.4,0,6.1,1.9,6.7,6.1c0.4,3.2,0.3,7.1,1.4,9.6h8.8c-1.6-2.2-1.5-7-1.7-9.5
		c-0.3-4-1.5-8.3-5.8-9.4v-0.1c4.4-1.8,6.3-5.3,6.3-10.1c0-6.1-4.5-11.1-11.7-11.1h-21.6V150.3z M236.7,110.2h-8.8v24.9
		c0,6-2,8.7-8.3,8.7c-7.1,0-8.3-4.3-8.3-8.7v-24.9h-8.8v24.9c0,10.9,6.3,16.1,17.1,16.1c10.7,0,17.1-5.3,17.1-16.1V110.2z
		 M177.6,150.3h8.8v-32.7h12v-7.4h-32.9v7.4h12V150.3z M142.1,150.3h28.4v-7.4h-19.5v-32.7h-8.8V150.3z M134.9,110.2H126v24.9
		c0,6-2,8.7-8.3,8.7c-7.1,0-8.3-4.3-8.3-8.7v-24.9h-8.8v24.9c0,10.9,6.3,16.1,17.1,16.1c10.7,0,17.1-5.3,17.1-16.1V110.2z
		 M94.9,123.6c-1.1-9.3-8.5-14.4-17.3-14.4c-12.4,0-19.7,9.3-19.7,21.2c0,11.6,7.3,20.8,19.7,20.8c9.8,0,16.7-6.4,17.6-16.4h-8.5
		c-0.7,5.3-3.7,9-9.1,9c-7.9,0-10.9-6.7-10.9-13.4c0-7,3-13.8,10.9-13.8c4.4,0,8.2,3,8.8,7H94.9z M235.6,99.3H264v-7.4h-19.5V59.2
		h-8.8V99.3z M212.8,69.1h0.1l5.1,14.7h-10.4L212.8,69.1z M193.2,99.3h8.9l3.1-8.9h15l3,8.9h9.2l-15-40.1h-9L193.2,99.3z
		 M181.3,99.3h8.8V59.2h-8.8V99.3z M175.4,72.7c-1.1-9.3-8.5-14.4-17.3-14.4c-12.4,0-19.7,9.3-19.7,21.2c0,11.6,7.3,20.8,19.7,20.8
		c9.8,0,16.7-6.4,17.6-16.4h-8.5c-0.7,5.3-3.7,9-9.1,9c-7.9,0-10.9-6.7-10.9-13.4c0-7,3-13.8,10.9-13.8c4.4,0,8.2,3,8.8,7H175.4z
		 M103.9,79.4c0-7,3-13.8,10.9-13.8c7.9,0,10.9,6.7,10.9,13.8c0,6.7-3,13.4-10.9,13.4C106.8,92.8,103.9,86.1,103.9,79.4z M95,79.4
		c0,11.6,7.3,20.8,19.7,20.8c12.4,0,19.7-9.3,19.7-20.8c0-11.9-7.3-21.2-19.7-21.2C102.3,58.2,95,67.5,95,79.4z M58.2,86
		c-0.1,9.9,8.2,14.3,17.1,14.3c10.9,0,16.7-5.5,16.7-12.9c0-9.1-9-11-11.9-11.7c-10.1-2.6-12-3-12-6.1c0-3.4,3.3-4.5,6.1-4.5
		c4.2,0,7.6,1.2,7.9,6.1h8.5c0-9.3-7.7-12.9-16.1-12.9c-7.2,0-15,3.9-15,12.1c0,7.5,6,9.8,12,11.4c5.9,1.6,11.9,2.3,11.9,6.6
		c0,4.1-4.7,5-7.8,5c-4.7,0-8.9-2.1-8.9-7.4H58.2z"/>
	<rect x="25.3" y="35.4" class="st0" width="8.4" height="234"/>
</g>
</svg>
